/* XPM */
static char *b8642c9aa09347e0ad917d5af2b27c4e[] = {
/* columns rows colors chars-per-pixel */
"64 64 146 2 ",
"   c #010101",
".  c #080707",
"X  c #090807",
"o  c #070808",
"O  c #0B0B0B",
"+  c #11100F",
"@  c #0F0F10",
"#  c #131312",
"$  c #181717",
"%  c #171817",
"&  c #1A1917",
"*  c #171718",
"=  c #1C1C1B",
"-  c #201E1D",
";  c #23221E",
":  c #242424",
">  c #292725",
",  c #2A2927",
"<  c #272828",
"1  c #2C2B2A",
"2  c #302E2E",
"3  c #393225",
"4  c #32312E",
"5  c #343433",
"6  c #383735",
"7  c #3B3935",
"8  c #3D3C3B",
"9  c #413D34",
"0  c #403F3C",
"q  c #454035",
"w  c #484133",
"e  c #42413D",
"r  c #4A463B",
"t  c #50493A",
"y  c #403F40",
"u  c #454443",
"i  c #484745",
"p  c #4B4946",
"a  c #474849",
"s  c #4C4B4A",
"d  c #534E42",
"f  c #514E4B",
"g  c #575144",
"h  c #5B5345",
"j  c #52514D",
"k  c #5A564D",
"l  c #545352",
"z  c #585755",
"x  c #5B5A55",
"c  c #5C5C5B",
"v  c #605F5D",
"b  c #696457",
"n  c #63615E",
"m  c #6A675E",
"M  c #6E695C",
"N  c #5F6164",
"B  c #646362",
"V  c #686765",
"C  c #6B6965",
"Z  c #65686C",
"A  c #6D6C6B",
"S  c #716E65",
"D  c #706F6C",
"F  c #72716E",
"G  c #747473",
"H  c #787775",
"J  c #7A7976",
"K  c #747578",
"L  c #787778",
"P  c #76797C",
"I  c #7C7B7A",
"U  c #827F75",
"Y  c #807F7D",
"T  c #7F807F",
"R  c #82817E",
"E  c #7C7D81",
"W  c #848483",
"Q  c #888786",
"!  c #8A8986",
"~  c #878888",
"^  c #8D8C8A",
"/  c #908E8D",
"(  c #979385",
")  c #91908E",
"_  c #8F8F91",
"`  c #8F9092",
"'  c #949392",
"]  c #989796",
"[  c #9A9996",
"{  c #9C9B9B",
"}  c #A09F9E",
"|  c #A2A19F",
" . c #9D9EA1",
".. c #A4A3A3",
"X. c #A8A7A6",
"o. c #A9A8A6",
"O. c #A4A6A9",
"+. c #A7A9AB",
"@. c #ACABAA",
"#. c #B0AFAF",
"$. c #B1B1AF",
"%. c #ADAEB1",
"&. c #AEB0B2",
"*. c #B4B4B3",
"=. c #B9B6B6",
"-. c #BBB9B7",
";. c #B5B6B8",
":. c #B8B7B8",
">. c #B6B8BA",
",. c #BCBCBB",
"<. c #C1BFBF",
"1. c #C1C0BE",
"2. c #BEC0C4",
"3. c #C4C3C2",
"4. c #C8C7C7",
"5. c #C8C8C6",
"6. c #C5C6C9",
"7. c #C6C9CC",
"8. c #CBCBCB",
"9. c #D2CECE",
"0. c #D2D1CF",
"q. c #CECED0",
"w. c #D4D3D3",
"e. c #D8D7D6",
"r. c #D7D8D7",
"t. c #D8D8D6",
"y. c #D6D7D9",
"u. c #D9D7D8",
"i. c #DBDBDB",
"p. c #E1DFDE",
"a. c #E1E0DF",
"s. c #DEDFE0",
"d. c #E0DFE0",
"f. c #DFE1E3",
"g. c #E4E4E3",
"h. c #E9E7E7",
"j. c #E8E8E7",
"k. c #ECECEB",
"l. c #F0EFEE",
"z. c #F1F0EF",
"x. c #F4F3F3",
"c. c #F8F6F6",
"v. c #F9F8F7",
"b. c #F5F6F8",
"n. c #FFFFFF",
"m. c None",
/* pixels */
"m.m.m.m.m.m.m.m.m.m.m.m.m.m.m.m.m.m.m.m.m.m.m.m.m.m.m.h 3 ' n.c , e z h m.m.m.m.m.m.m.m.m.m.m.m.m.m.m.m.m.m.m.m.m.m.m.m.m.m.m.m.",
"m.m.m.m.m.m.m.m.m.m.m.m.m.m.m.m.m.m.m.m.m.m.m.e k H ;.+.P J n.J 3.t.$.O.{ W B j d m.m.m.m.m.m.m.m.m.m.m.m.m.m.m.m.m.m.m.m.m.m.m.",
"m.m.m.m.m.m.m.m.m.m.m.m.m.m.m.m.m.m.m.m.r j ~ ;.k.g.^ n.u.C n.Y v.n.2 1.n.n.n.f.&.T f q m.m.m.m.m.m.m.m.m.m.m.m.m.m.m.m.m.m.m.m.",
"m.m.m.m.m.m.m.m.m.m.m.m.m.m.m.m.m.m.0 T 6.b.n.n.n.g.s n.0.c n.J | z.,.x.n.n.n.n.a ,.v.u { n.m.m.m.m.m.m.m.m.m.m.m.m.m.m.m.m.m.m.",
"m.m.m.m.m.m.m.m.m.m.m.m.m.m.m.m.! u 7.$._ n.n.n.k.:.{ I e D n.@.e C R G I ) 1.x.o.g.l.j n.,.1 k m.m.m.m.m.m.m.m.m.m.m.m.m.m.m.m.",
"m.m.m.m.m.m.m.m.m.m.m.m.m.m.7 8.f.n n.{ I l.] n l B / { 1.x.n.n.x.j.w.,.| W C c [ 4.x _ n.n u.7.j m.m.m.m.m.m.m.m.m.m.m.m.m.m.m.",
"m.m.m.m.m.m.m.m.m.m.m.m.m.p B j n...S z.! u n { g.n.n.n.n.n.n.n.n.n.n.n.n.n.n.g.{ n j n.-.W n.{ @.Z r m.m.m.m.m.m.m.m.m.m.m.m.m.",
"m.m.m.m.m.m.m.m.m.m.m.m.5 q.n.n ] n.F 1 I u.n.n.n.n.n.n.n.n.n.n.n.n.n.n.n.n.n.n.n.n.v.n.C n n.l +.n.` > m.m.m.m.m.m.m.m.m.m.m.m.",
"m.m.m.m.m.m.m.m.m.m.m.a y.V w.n.; i.x.t.n.n.n.n.n.n.n.a u n.n.n.n.n.n.n.n.n.n.n.n.n.n.n.j.J i 3.n.n.n.,.4 m.m.m.m.m.m.m.m.m.m.m.",
"m.m.m.m.m.m.m.m.m.m.a x.n.V 3.H j u.n.n.n.n.n.n.n.n.n.B   8.c.G { n.n.n.n.n.n.n.n.n.n.n.n.n.*.s T n.n.n.b.5 m.m.m.m.m.m.m.m.m.m.",
"m.m.m.m.m.m.m.m.m.u x.n.n.v.8 n n.n.n.n.n.n.n.n.n.n.n.n.8 G x.  a n.n.n.n.n.=.^ l.n.n.n.n.n.n.v.c j n.n.{ O.7 m.m.m.m.m.m.m.m.m.",
"m.m.m.m.m.m.m.m.6 l.n.n.8.; ' n.n.n.n.n.n.n.n.n.n.x.z.n.9.n.Q   o.n.n.n.n.4.    5 v.n.n.n.n.n.n.n.R s l.e 2.n.; m.m.m.m.m.m.m.m.",
"m.m.m.m.m.m.m., v.n.n.9.& $.n.n.n.n.n.n.n.n.n.n.n.*.^ x...D : I   { n.n.n.@.+   6 g.n.n.n.n.n.n.n.n.] e v.n.@.1 :.m.m.m.m.m.m.m.",
"m.m.m.m.m.m.n ,.] <.x.= $.n.n.n.n.n.n.n.n.n.n.n.n.l.n C #.+ = l { e.n.n.n.u.8 } [ 4 z 4.n.n.n.n.n.n.n.[ B D 7 g.n.( m.m.m.m.m.m.",
"m.m.m.m.m.C l n.B { l [ n.n.n.n.n.n.n.n.n.n.n./ * s 4 8 Q     8 n.n.n.n.:.# *.n.j.Q     3.n.n.n.n.n.n.n.! j n.x.l + m.m.m.m.m.m.",
"m.m.m.m.m.t.B n g.D C n.n.n.n.n._ = O g.n.:.l V s = A 7 = _ 4 , v.n.n.n.#   p.! v | R   2 n.n.n.n.n.n.n.n.n.9.7 $.n.e m.m.m.m.m.",
"m.m.m.m.I 8.n...e l n.n.n.n.n.n.W ^ V 8 c   1 n.n.i : u i.n.#.= v.n.n.k.< X.v.i.=.] n.,.2 l.n.n.n.n.n.n.n.n.7 ..n.,.Z m m.m.m.m.",
"m.m.m.m.0 e J n.c.l.n.n.n.n.c.w.n.v.n._     @ = &   u 8.n.n.n.  l n.n.d.$.n.n.^ F F <.n.O ] n.n.n.n.n.n.n.n.$.W x.1 ,.n m.m.m.m.",
"m.m.m.x g.n.c f g.n.n.n.n.n.3.  +   O l j :.i.=.I ..n.n.n.n.n.D   d.n.v.F n f $.{ ..:.:.  l n.n.n.n.n.n.n.n.n.n ..n.n.! x m.m.m.",
"m.m.m.A ..e.n.1 t.n.n.n.n.n.n.3.Q D A X.0.n.n.n.n.n.n.n.n.n.n.g.  B n.n.{     2 > * c l u s n.n.n.n.n.n.n.n.n.0.z n.n.k.p m.m.m.",
"m.m.Y +.l #.' R n.n.n.n.n.v.{ 0.n.n.c.O   O F x.n.n.n.n.n.n.n.n.6   l.n.u.u | #.k.c.3.I -   n.n.n.n.n.n.n.n.n.n.A X.n.n.H m.m.m.",
"m.m.n l.n.c.u g.n.n.n.n.3.<   8 #.I D l / 8 0 X.n.n.n.n.n.n.n.n.u.  D n.k.8 #.u.*.I n <.{ j v n.n.n.n.n.n.n.n.n.1.B n.n.y.p m.m.",
"m.m.I n.n.| n n.n.n.n.n.x   6 a c ! x.n.g.u - @.n.n.n.n.n.n.n.w.l.V   x # 5 l $   J p.@.H n.u c n.n.n.n.n.n.n.n.n.C i.3.8.F m.m.",
"m.R ..n.n.n ..n.n.n.n.n.v.n.n.n.n.h.] l     n c.n.n.n.n.n.n.X.C -.I o   2 v.n.p   e !   O n.h.> #.n.n.n.n.n.n.n.n.) +.V H :.m.m.",
"m.C g.n.z.z j.n.n.n.n.n.n.n.-.j O *     V q.n.n.n.n.n.n.n.l.  H } ..C O b.n.n.{ , g.3.W i.n.n.! i.n.n.n.n.n.n.n.n.3.J n.n.2.t m.",
"m.F n.n.=.n n.n.n.n.n.n.+.@     6 ..*.d.n.n.n.n.n.n.n.n.n.<.=   6 ] 2   ..n.n.n.v.n.n.n.n.n.n., 7 j.n.n.n.n.n.n.n.n.l H T l n m.",
"m...D ^ @.W n.n.n.n.n.{   @ / i.n.n.3.v : 1 z ..p.q.x.n.h.0 8 :     W j , x.n.n.n.i./ z , 3.n.c   / n.n.n.n.n.n.n.n.-.Q -.g.n.m.",
"( ;.:.8./ { n.n.n.n.g.Q D : n.v.I .   < F B O     & : 1 a . 2 i.u.] n.$.  I _ t.o.    =   3.n.a   8.n.n.n.n.n.n.n.n.n.n.e...T m.",
"M B w.9.7 1.n.n.n.n.3.& q.q.s O 7 ' 3.n.n.g.> @ / g.# , g.g.n.n.n.n.*.O : O + k...v O   Q n./   # *.n.n.n.n.n.n.n.n.8.i n ) c w ",
"*.K H C G z.n.n.n.n.g.& @ 3.g.$.n._ c n.n.! @ *.n.*.9.n.n.n.' i g.n.W l     ..n.n.n.{ @.n.n.0.=   V n.n.n.n.n.n.n.n.o.F n.n.,.e ",
"n.n.n.n.n.n.n.n.n.n.n.v.z   / n.n.@.#.n.n.n.j.n.n.7 B :.n.p.> $.n.] 3.n.~ 4 V V u u.n.8.{ = ! l.L i.n.n.n.n.n.n.n.n.1.o.[ s 3.j ",
"A c A c ) n.n.n.n.n.n.n.n...# k.n.n.n.n.n.n.n.n.n.,.    Y > n.n.n.i - v.n.c O 7 V 2 a 4   u 2 ] n.n.n.n.n.n.n.n.n.n.8.W i.q.<.8 ",
"j ,.n.@.8 l.n.n.n.n.n.n.n.n.< v n.n.n.n.j.n.n.n.n.u.x 4     D p.n.+.  + 5 * o D n.s O l.J w.n.2 ' n.n.n.n.n.n.n.n.n.8.F n.n.:.7 ",
"V 9.*.g.G a.n.n.n.n.n.n.n.n.v ' v.z G R ..n.n.n.n.n.n.n.,.a   3.n.n.e.1   # 5 # ! 1 P x.2 l n.# :.n.n.n.n.n.n.n.n.n.1.J n.n.$.8 ",
"I @.8 $.I 0.n.n.n.n.n.n.n.n.T _ b.6 H u.n.n.n.n.n.n.n.n.n.n.n.n.n.n.n.n.#.4 o < # @   D n.8 ^ B n.n.n.n.n.n.n.n.n.n.$.R n.n...e ",
"R ..n.n.n *.n.n.n.n.n.n.n.n.3.v n.n.n.n.n.{ + =.I D 3.! ^ z.n.n.n.n.n.n.l.n.P     _ 3.1 X.0.O c n.n.n.n.n.n.n.n.n.n.{ / n.n.W h ",
"m.` n.n.J [ n.n.n.n.n.n.n.n._ Q n.n.n.n.V   W u # 6 . 7   # O I v.n.n.v./ I ,./ H l { 0.E j   o z.n.n.n.n.n.n.n.n.n./ o...,.! m.",
"m.R n.n.' J n.n.n.n.n.n.n.{ s i.n.n.n.H   > n.+.{ n.,.' I $..   1 I v.n.n.l.] D x.q.H I { H s B v.n.n.n.n.n.n.n.n.n.W j.B K / m.",
"m.F v.n.4.v n.n.n.n.n.n.2.j n.n.0.2 u @ 0.q.c n.v.n.n.D 7 n.g.s     y :. .{ n.n.n.0.C 8.F a y.n.n.n.n.n.n.n.n.n.n.k.e 1.n.l.f m.",
"m.S q.n.n.z u.n.n.n.n.v.j D W y.y   I n.n.n.u s n.n.n.z G n.n.n.| #     u ! s A 3.n.L a u < z g.n.n.n.n.n.n.n.n.n.n.o.l I c M m.",
"m.! $.W ] ! ' n.n.n.n.c.B B 7 * y r.n.n.n.n.{   +.n.9.# x.n.n.n.n.*.# @ a W :     B n.n./ Q & s n.n.n.n.n.n.n.n.n.n.n.n.8.F m.m.",
"m.m.! ) #.j.s c.n.n.n.n.+.j.n.1 ..n.n.n.n.n.D ^ v.n.l I n.n.n.n.n.n.5 s X.  6 j.+., 1 X.n.n.n.F :.n.n.n.n.n.n.n.n.n j ! t.n.m.m.",
"m.m.n n.x.c i x.n.n.n.n.e...n.c c n.n.n.n.n.6 ;.] :.~ i.n.n.n.n.n.n.V Z b.  # n.n.j.    F :.3.I 8 n.n.n.n.n.n.n.o.V g./ u S m.m.",
"m.m.{ 4 j / n.n.n.n.n.n.n...n.3.# c.n.n.n.0.= =   3.3.x.n.n.n.n.n.n.:.4 a & s X.n.n.I   @       : n.n.n.n.n.n.n.n -.{ n._ m.m.m.",
"m.m.m.' n.n.} p g.n.n.n.n._ 6.n.  = n.n.n...  6 6 g.H *.n.n.n.n.n.n.z.O 7 a a l n.n.v.= # +...W 3.n.n.n.n.n.n.$.C b.8 { n m.m.m.",
"m.m.m.n.' s ' F n n.n.n.n...' n.i.a 8 @.n.v.D B 3.g.,.z n.n.n.n.n.n.n.z w.6.] { $.n.n.V   i.n.n.n.n.n.n.n.n.n.p 4.n.n.F m.m.m.m.",
"m.m.m.m.; i.,.u.s @.n.n.n.x.8 W n.n.3.A _ n.n.F W n.n.I c c.n.n.n.n.n.$.4 n.n.:.@ 0.n.3.  s n.n.n.n.n.n.n.n.! A n.n.g.8 m.m.m.m.",
"m.m.m.m./ $.V / g., k.n.n.n.3.: Q n.n.{   3.n.n.l 8.n.n.{ 2 ! n.n.n.n.v.1 l n.l.1   0.n.:   e.n.n.n.n.n.n.9.7 z.n.n.l m.m.m.m.m.",
"m.m.m.m.m.u j.n.n.! e n.n.n.n.n.z l @ .   X.n.n.u.F n.n.4.O   :.n.n.n.n.n.K Q n.y   o l.q.  4 :.n.n.n.n.x.6 t.n.n.$.2 m.m.m.m.m.",
"m.m.m.m.m.m.l n.n.n.z B n.n.n.n.,.H P : : l.$.{ :.1 W V       @ ' / F { :.e.& c 8 2 o v o.*     y u.n.j.n | @.0.n.5 m.m.m.m.m.m.",
"m.m.m.m.m.m.C W n.n.n.8 G n.n.v.n.n.n._ u s o .       * l I  .y s W F H V 7 P I ` o o   : :.8.3.$.l.n.w.2 c.l ..F m.m.m.m.m.m.m.",
"m.m.m.m.m.m.m.e @.n.n.n.6 F n.n.n.n.n.n.g.{ 7.d.^ ] 8.n.n.n.n.n.n.n.n.*.P z F P c z I ^ c / n.n.n.n.,.n.,.e n.` 7 m.m.m.m.m.m.m.",
"m.m.m.m.m.m.m.m.2 e.v.B k.x C n.n.n.n.n.n.n.v.3.2.] V A N I L W b.n.n.v.f.c.3.3.n.n.n.n.n.j.n.n.j.x = { n.*.6 j m.m.m.m.m.m.m.m.",
"m.m.m.m.m.m.m.m.m.e ..c n./ x n.n.n.n.n.n.n.v.x.t.2.] B _ +.[ +.c.....f.n.0.' ..b.n.n.n.n.n.n.*.2 :.v.6 ^ n.{ m.m.m.m.m.m.m.m.m.",
"m.m.m.m.m.m.m.m.m.m.0 x.,.6 n.g.2 / n.n.n.n.n.n.n.n.n.n.v.c.n.n.k.{ { ;.x.g.0.g.v.n.n.n.n.v.V 7 ,.[ { n.- ' m.m.m.m.m.m.m.m.m.m.",
"m.m.m.m.m.m.m.m.m.m.m.u 1 g.x.0 { R e +.n.n.n.n.n.n.n.n.n.n.n.n.v.n.n.n.n.n.n.n.n.n.n.n.) 8 V v.n.I ]  .r m.m.m.m.m.m.m.m.m.m.m.",
"m.m.m.m.m.m.m.m.m.m.m.m.1.c.z *.n.*.{ i s { c.n.n.n.n.n.n.n.n.n.n.n.n.n.n.n.n.n.n.x./ s B 1.n.n.n.n.K 9 m.m.m.m.m.m.m.m.m.m.m.m.",
"m.m.m.m.m.m.m.m.m.m.m.m.m.-.: i.g.1 v.n...x j G o.x.n.n.n.n.n.n.n.n.n.n.n.n.w.c.n.c x *.j.n.n.n.%.s m.m.m.m.m.m.m.m.m.m.m.m.m.m.",
"m.m.m.m.m.m.m.m.m.m.m.m.m.m.m.z J g.n.n.n.n.g.` n e o.n.4.) @.*.$.@.{ ! F F 1 ) n.A x.u., n.i.N 1 m.m.m.m.m.m.m.m.m.m.m.m.m.m.m.",
"m.m.m.m.m.m.m.m.m.m.m.m.m.m.m.m.F n ! f.n.n.z *.n.G R n.c z ) W C V J ! | j.w.s n...[ n.%.I p m.m.m.m.m.m.m.m.m.m.m.m.m.m.m.m.m.",
"m.m.m.m.m.m.m.m.m.m.m.m.m.m.m.m.m.m.C x I ;.L e.n.J $.x.G n.+.:.n.n.n.n.n.a c.Q <.l.N W c m.m.m.m.m.m.m.m.m.m.m.m.m.m.m.m.m.m.m.",
"m.m.m.m.m.m.m.m.m.m.m.m.m.m.m.m.m.m.m.m.m.n / ..%.l a.*.} n.C / n.n.n.n.c.D 7.G V n.C m.m.m.m.m.m.m.m.m.m.m.m.m.m.m.m.m.m.m.m.m.",
"m.m.m.m.m.m.m.m.m.m.m.m.m.m.m.m.m.m.m.m.m.m.m.m.b n n.[ x o.,.1.:.$.X.^ J / c t m.m.m.m.m.m.m.m.m.m.m.m.m.m.m.m.m.m.m.m.m.m.m.m.",
"m.m.m.m.m.m.m.m.m.m.m.m.m.m.m.m.m.m.m.m.m.m.m.m.m.m.m.m.g p l s 8 e i g m.m.m.m.m.m.m.m.m.m.m.m.m.m.m.m.m.m.m.m.m.m.m.m.m.m.m.m."
};
