/* XPM */
static char *_9e1152b13214b9dc5bcaed9866099b1[] = {
/* columns rows colors chars-per-pixel */
"32 32 256 2 ",
"   c #040301",
".  c #0D0A06",
"X  c #130C02",
"o  c #120F09",
"O  c #1B0F02",
"+  c #1E1204",
"@  c #1B150C",
"#  c #1E1A0F",
"$  c #16130B",
"%  c #1E1A10",
"&  c #231504",
"*  c #221A07",
"=  c #251C0F",
"-  c #2F1E0A",
";  c #2B1802",
":  c #351C03",
">  c #381A05",
",  c #231D12",
"<  c #380E06",
"1  c #1A2407",
"2  c #1D2B0B",
"3  c #1E2709",
"4  c #1E340B",
"5  c #2E2905",
"6  c #21260A",
"7  c #2C220B",
"8  c #242B0C",
"9  c #2B2E0D",
"0  c #252706",
"q  c #352203",
"w  c #3C2304",
"e  c #352C03",
"r  c #34230B",
"t  c #332D0A",
"y  c #3F2A0A",
"u  c #3B2A06",
"i  c #23340C",
"p  c #2A310F",
"a  c #34320B",
"s  c #393405",
"d  c #272112",
"f  c #292314",
"g  c #2E2C14",
"h  c #352A14",
"j  c #3A2A14",
"k  c #312718",
"l  c #352D1A",
"z  c #332412",
"x  c #263311",
"c  c #2D3511",
"v  c #343C15",
"b  c #393C13",
"n  c #3D331E",
"m  c #3C3D1A",
"M  c #323716",
"N  c #3E3520",
"B  c #4A0F08",
"V  c #46160B",
"C  c #5A1706",
"Z  c #432704",
"A  c #4B2B05",
"S  c #432C0D",
"D  c #442A08",
"F  c #502D04",
"G  c #4D3C04",
"H  c #49310D",
"J  c #473905",
"K  c #55340A",
"L  c #543E0D",
"P  c #5D3A0A",
"I  c #573604",
"U  c #4C2D10",
"Y  c #5E2511",
"T  c #532912",
"R  c #443511",
"E  c #4D3112",
"W  c #42341E",
"Q  c #453D1C",
"!  c #4D3E1E",
"~  c #4B3B17",
"^  c #5B351A",
"/  c #553B1C",
"(  c #583A17",
")  c #633D04",
"_  c #6B3D05",
"`  c #633D0B",
"'  c #683806",
"]  c #793705",
"[  c #7C3C05",
"{  c #753805",
"}  c #672A14",
"|  c #633B1E",
" . c #6E331B",
".. c #443721",
"X. c #443922",
"o. c #4A3D24",
"O. c #563E22",
"+. c #37411B",
"@. c #3C431B",
"#. c #4D4403",
"$. c #534305",
"%. c #5C4204",
"&. c #5E410B",
"*. c #554609",
"=. c #59500E",
"-. c #45441C",
";. c #5A421B",
":. c #54441A",
">. c #634404",
",. c #6D420B",
"<. c #674807",
"1. c #744105",
"2. c #71450A",
"3. c #7A470A",
"4. c #624212",
"5. c #6C4913",
"6. c #674718",
"7. c #744C13",
"8. c #784913",
"9. c #615611",
"0. c #74531E",
"q. c #7B5012",
"w. c #4D4124",
"e. c #524422",
"r. c #5A4425",
"t. c #564A26",
"y. c #5C4924",
"u. c #53452A",
"i. c #56482B",
"p. c #5A4C2C",
"a. c #5B5D2D",
"s. c #59542D",
"d. c #5E4F30",
"f. c #5F5030",
"g. c #495323",
"h. c #654222",
"j. c #6C4522",
"k. c #644D2B",
"l. c #694B23",
"z. c #62542E",
"x. c #655A29",
"c. c #775428",
"v. c #645432",
"b. c #685432",
"n. c #675933",
"m. c #6B5B36",
"M. c #6C5C38",
"N. c #7B5532",
"B. c #67622E",
"V. c #656634",
"C. c #6E6234",
"Z. c #74623B",
"A. c #79653D",
"S. c #7C6A3F",
"D. c #796037",
"F. c #7E6A41",
"G. c #842805",
"H. c #A33D06",
"J. c #813D26",
"K. c #864005",
"L. c #8D4205",
"P. c #8F4E05",
"I. c #814B08",
"U. c #914605",
"Y. c #994907",
"T. c #8D5506",
"R. c #835905",
"E. c #8A540C",
"W. c #86540F",
"Q. c #935105",
"!. c #945E05",
"~. c #9F5906",
"^. c #97590A",
"/. c #9D5706",
"(. c #8D5D16",
"). c #845D1D",
"_. c #805817",
"`. c #A14206",
"'. c #AE5206",
"]. c #A85C06",
"[. c #A8570A",
"{. c #B05706",
"}. c #BE5806",
"|. c #A65A16",
" X c #99650E",
".X c #8B651B",
"XX c #956E11",
"oX c #976316",
"OX c #AC6006",
"+X c #A4620C",
"@X c #AD640A",
"#X c #B46306",
"$X c #BB6406",
"%X c #BA6A07",
"&X c #B2670A",
"*X c #B36B0C",
"=X c #B96C0B",
"-X c #BA710F",
";X c #AC6D14",
":X c #AE691B",
">X c #A36C18",
",X c #B36F11",
"<X c #B96C11",
"1X c #AA721C",
"2X c #B47314",
"3X c #B37518",
"4X c #B5791C",
"5X c #BC7C1C",
"6X c #BD7714",
"7X c #805E2C",
"8X c #83532D",
"9X c #975C2E",
"0X c #875A37",
"qX c #915C33",
"wX c #A65D24",
"eX c #88642A",
"rX c #9B6D22",
"tX c #936A29",
"yX c #9F7126",
"uX c #82653E",
"iX c #896837",
"pX c #93713D",
"aX c #9E783F",
"sX c #AA672A",
"dX c #B37C23",
"fX c #B97F23",
"gX c #A2793C",
"hX c #A3793A",
"jX c #A77B2D",
"kX c #C26806",
"lX c #836E42",
"zX c #926C42",
"xX c #867245",
"cX c #897446",
"vX c #8C7748",
"bX c #8D7A4B",
"nX c #937D4C",
"mX c #9A7844",
"MX c #BA8123",
"NX c #B5812A",
"BX c #B78838",
"VX c #C28729",
"CX c #C2903B",
"ZX c #96814F",
"AX c #99814E",
"SX c #93894A",
"DX c #9D8551",
"FX c #9D8852",
"GX c #AA864C",
"HX c #B38848",
"JX c #A48451",
"KX c #AA8B52",
"LX c #A48953",
"PX c #B38E52",
"IX c #B89254",
"UX c None",
/* pixels */
"UXUXUXUXUXUXUXUXUXUXUXUX* 6 - B 2 6 9 7 UXUXUXUXUXUXUXUXUXUXUXUX",
"UXUXUXUXUXUXUXUXUX* 8 b v x R  .b m a.a.v c V UXUXUXUXUXUXUXUXUX",
"UXUXUXUXUXUXUX< < x 9 b R E ^ h.| | O./ Q e.J.c h UXUXUXUXUXUXUX",
"UXUXUXUXUXUX1 t Y D U ^ O.y.p.n.C.C.A.uXN.0Xj.g.s.v UXUXUXUXUXUX",
"UXUXUXUXUX3 8 9 T / ! e.p.X.k p.d.A.F.lXbXbXzXh.x.SX+.UXUXUXUXUX",
"UXUXUXUX3 b t U ! w.e.p.f.f.o.% N lXF.f u.DXnXJXN.x.n.v UXUXUXUX",
"UXUXUX1 9 a T ! e.y.p.z.t.n k   X.xXF., N v.ZXDXKXqX:.7.Y UXUXUX",
"UXUXV 5 0 T ! e.h W p.m % . # o A.vXk m.f.% d.LXGXHXsXwXL L UXUX",
"UXUX> Y T ! e.! l f   = # , F.X.d.vXd.F.d.S.W KXHXBXCX3.9.c UXUX",
"UX0 x D / e.y.n d , l f.d.F.cXM., nXX., ..e.# gXHXNXNX:X&.XXG UX",
"UX2 9 U e.t.l f p.l , o.xXlXcXnXk M.p...b.k.z c.BXNX4X5X8.XX*.UX",
"UXv R ^ t.p.n l m W # N xXcXbXZ.i.o N O.$ O.l.0.rX4X4X4X|.<.*.UX",
"7 @.R r.p.z.X., f f i.cXnXZXxXo k o D.GXN.tXyX.X4.5X3X2X<X' $.D ",
"6 x E k.v.o.$ o.o.l l , X.i...f W X.j gXtX7 ( _.& 3X3X,X=X[.H.C ",
"- R ^ v.m.l l o.N f.M.% i.o.xXF.KXd.  | tXy (.4.X ,X,X,X-XY.%.e ",
"B  .l.m.C.m.l p.lXlXbXbXF.f v.D.iXc./ 7 5.7.R K W.,X=X*X%XU.%.e ",
"2 b | C.Z.F.F.X.A.Z.vXJXZXi.* k.gXS o   H r K ` E.-X&X&X%XU.!.G ",
"8 m h.A.F.F.lXp.n.A.xXA.lXmXzXhXCXNX5.o   y ` w ^.-X&X#X%XK.!.G ",
"g V.^ F.F.F.F.n.DXcXf o.X.W j z 0.fX1X8.P 8.) O ^.=X#X#X$X[ >.e ",
"h V.e.lXxXcXu.A.X.X.Z.b.HXeX0.).O - 5.q.+X2.w _ %X#X#X#X$X] #.A ",
"UX+.-.N.bXcXi.n d.LXPX..hXl.rXVX>XX & & Z ,.K.I /.#X#X#X{.`.G.UX",
"UXc e.qXnXnXcXM.b.IXaXh l.).MX4XfXP & w *X+ Z Z I $X#X$X[ G Z UX",
"UXT J.j.zXLXlXlXW pXhX+ 4.).4X4X6X3.r A &X3.X _ U.#X#X'.) %.J UX",
"UXUXp @.j.KXnXb.aXc.7XyX.X>Xq.;X6X+X_ +XA /.& ].kX].$X{ !.%.UXUX",
"UXUXw.V.C.8XPXpXy.f H dX5.(.& + +X@XI._ X : w ; Q.$XL.>.R.F UXUX",
"UXUXUX@.SXx.9XBXjX).L H * w I P ,.1.F w ; X w [ P.}.' J s UXUXUX",
"UXUXUXUX-.C.L sXVXMX1XoX5.4.3.E.@XOXQ.1.Q.]./.$XU.' H.: UXUXUXUX",
"UXUXUXUXUXi 5.|.3.:X5X3X+XE.E.@XT.1.].Q.].kX{.{ ) #.> UXUXUXUXUX",
"UXUXUXUXUXUXC &.=.>.3.[.=X=X%X%X%X%X$X$X{.[ ) !.R.5 UXUXUXUXUXUX",
"UXUXUXUXUXUXUXS b XX X&._ [.Y.U.L.K.[ ] `.$.%.%.e UXUXUXUXUXUXUX",
"UXUXUXUXUXUXUXUXUXu #.$.<.`.>.%.T.!.2.#.G.Z e UXUXUXUXUXUXUXUXUX",
"UXUXUXUXUXUXUXUXUXUXUXUX: C e e G G 5 q UXUXUXUXUXUXUXUXUXUXUXUX"
};
