/* XPM */
static char *edd2f95b3f304584f7f48efd3ec1c154[] = {
/* columns rows colors chars-per-pixel */
"32 32 88 1 ",
"  c #020201",
". c #0C0C0B",
"X c #131212",
"o c #1D1D1D",
"O c #20201E",
"+ c #242323",
"@ c #272728",
"# c #2B2B2A",
"$ c #343434",
"% c #3D3C3C",
"& c #433D33",
"* c #403F3E",
"= c #42413C",
"- c #454544",
"; c #484847",
": c #4C4B4B",
"> c #565555",
", c #585756",
"< c #5D5D5C",
"1 c #605F5D",
"2 c #66645E",
"3 c #646463",
"4 c #6D6B65",
"5 c #6C6C6B",
"6 c #706F6C",
"7 c #71706F",
"8 c #7B756A",
"9 c #737372",
"0 c #797773",
"q c #7A7976",
"w c #7D7C7B",
"e c #817D75",
"r c #807F7E",
"t c #83827D",
"y c #807F80",
"u c #848483",
"i c #888786",
"p c #8A8986",
"a c #878888",
"s c #8B8B8A",
"d c #908F8C",
"f c #92918E",
"g c #8E8F91",
"h c #949392",
"j c #989796",
"k c #9A9995",
"l c #979798",
"z c #9D9C9B",
"x c #A09F9D",
"c c #A2A09E",
"v c #9D9EA1",
"b c #A4A4A3",
"n c #A8A7A6",
"m c #AAA9A6",
"M c #ACABAB",
"N c #B0AFAF",
"B c #AFB0AF",
"V c #B1B0AE",
"C c #ADAEB1",
"Z c #AFB0B2",
"A c #B4B4B3",
"S c #B8B8B7",
"D c #B5B6B9",
"F c #B7B9BB",
"G c #BCBCBB",
"H c #C1C0BF",
"J c #C2C2C2",
"K c #CCCBCB",
"L c #CFD0CF",
"P c #D1D0CF",
"I c #CDCED1",
"U c #D4D4D4",
"Y c #D9D7D6",
"T c #D8D8D7",
"R c #D5D6D8",
"E c #DBDBDB",
"W c #E0DFDF",
"Q c #DDDEE1",
"! c #E3E3E3",
"~ c #E5E7E9",
"^ c #ECECEC",
"/ c #F0EFEF",
"( c #F0F0EF",
") c #F4F4F4",
"_ c #F3F5F8",
"` c #F7FAFF",
"' c #FFFFFF",
"] c None",
/* pixels */
"]]]]]]]]]]]]8ehAwwe]]]]]]]]]]]]]",
"]]]]]]]]]=c!QJBzVG_^C0]]]]]]]]]]",
"]]]]]]]]MzKHzpGEmAzcnCGf]]]]]]]]",
"]]]]]]tzGfubE/'''')~mHbZC4]]]]]]",
"]]]]]pQuj!`''j9!Y'''''G6K`1]]]]]",
"]]]]p'nq(''''^S:9'(*S''/pmU0]]]]",
"]]]4^nw'''''JA9 c'K+3m'''spCp]]]",
"]]]u5u''zV!c,O@$'):Kn.V'''zMf]]]",
"]]hMb`'Tw<X;-:)9G/hYxM5''''fG5]]",
"]phs^''H9<fLm''n%'y;iq$''''GVR]]",
"]zJz/'u>Hn,f''''-Gr,Mh-S'''_x'f]",
"]^Pm''b6gu%0'''Ex.h7Ornh!'''GMM]",
"cEnE''Swq5s'''! ;o/'HJ!Ms'''!tv]",
"kns''A@wau5%9i<:y3,/J@bu$''''SdA",
"ncV''9<H1MU#0wEG`x xD3K3$''''Vv2",
"AkE''^1b''`'K-aSmsy*nm<wK''''VKu",
"wfm'''(9Gb'''l%VW:X@-*baK''''M'u",
"fSM''''CnGKfmKGE''fX.fs*/'''`n)w",
"m'k_''EM'J@79<-$s'`Gbb7-_'''^cSe",
"]EbE'_<n<3Gl'ZbSX#zxUn$b''''_Ad]",
"]mlM'/z-y''0EuQ'W+%*3sDuU'''Eln]",
"]fjG'`'zu'R$6U'''f w'X5>p'''qpp]",
"]]bpH'KSwS_ofA_''d>w'lOH!''mSJ]]",
"]]um0^(tJ9z'E(rU'!nQ<U-_''Eh'p]]",
"]]]GW5')uO$U6lX.bJlu :1@U'qEG]]]",
"]]]w(Jq''Yp3%-ffbM55<$wEUKzu2]]]",
"]]]]rKqb`'''KlbK^ETm_''EifFt]]]]",
"]]]]]5nSwb/''__'UI'('`xaKgu]]]]]",
"]]]]]]MlGksMP'''''!`E4n'J&]]]]]]",
"]]]]]]]]iQ~ltSMzzkkbMMKw]]]]]]]]",
"]]]]]]]]]]pCClVS(_IpVp]]]]]]]]]]",
"]]]]]]]]]]]]]H5tpr8]]]]]]]]]]]]]"
};
