/* XPM */
static char *_9a16982afef4616df80bb8872a61f7f[] = {
/* columns rows colors chars-per-pixel */
"64 64 256 2 ",
"   c #010100",
".  c #090602",
"X  c #0C0904",
"o  c #0D0C07",
"O  c #130C03",
"+  c #120E09",
"@  c #190803",
"#  c #031500",
"$  c #0C1A02",
"%  c #091600",
"&  c #141402",
"*  c #1C1304",
"=  c #15110A",
"-  c #1A150C",
";  c #1A1909",
":  c #1D1910",
">  c #270601",
",  c #340402",
"<  c #221502",
"1  c #251A03",
"2  c #2B1B02",
"3  c #271809",
"4  c #361903",
"5  c #231D12",
"6  c #261713",
"7  c #351E12",
"8  c #082601",
"9  c #172903",
"0  c #093502",
"q  c #1C3B01",
"w  c #153806",
"e  c #282704",
"r  c #332301",
"t  c #3C2502",
"y  c #362806",
"u  c #283504",
"i  c #383802",
"p  c #2C2315",
"a  c #2C2518",
"s  c #332B1B",
"d  c #382918",
"f  c #3B321D",
"g  c #3C3321",
"h  c #4C0501",
"j  c #491A02",
"k  c #561906",
"l  c #5D0200",
"z  c #651706",
"x  c #741805",
"c  c #751D11",
"v  c #4C2D01",
"b  c #442804",
"n  c #562408",
"m  c #4C3209",
"M  c #573705",
"N  c #432C17",
"B  c #473417",
"V  c #553C17",
"C  c #692503",
"Z  c #643E03",
"A  c #752815",
"S  c #7A351D",
"D  c #6F2C0E",
"F  c #423522",
"G  c #443A25",
"H  c #4A3D27",
"J  c #563B28",
"K  c #783F22",
"L  c #194409",
"P  c #17520B",
"I  c #274606",
"U  c #354504",
"Y  c #25550A",
"T  c #274911",
"R  c #354716",
"E  c #295812",
"W  c #365817",
"Q  c #385305",
"!  c #39621D",
"~  c #3F6000",
"^  c #3C6521",
"/  c #3C5A20",
"(  c #485C00",
")  c #565C00",
"_  c #474D19",
"`  c #574518",
"'  c #48561A",
"]  c #484A00",
"[  c #6A4405",
"{  c #774B05",
"}  c #674718",
"|  c #785417",
" . c #73520B",
".. c #476402",
"X. c #5A6705",
"o. c #6A6801",
"O. c #737308",
"+. c #4C422B",
"@. c #5C4C25",
"#. c #52442B",
"$. c #5C4E2B",
"%. c #574828",
"&. c #5C5228",
"*. c #5A4D31",
"=. c #574731",
"-. c #5D5334",
";. c #475320",
":. c #654A26",
">. c #784828",
",. c #64542C",
"<. c #67572F",
"1. c #765728",
"2. c #645433",
"3. c #6C5B33",
"4. c #6C5D3B",
"5. c #675835",
"6. c #755D37",
"7. c #614F33",
"8. c #4B6729",
"9. c #53722C",
"0. c #73633B",
"q. c #79683F",
"w. c #78643A",
"e. c #667937",
"r. c #6E6D35",
"t. c #7D6B43",
"y. c #786642",
"u. c #7C7742",
"i. c #725540",
"p. c #951703",
"a. c #972D00",
"s. c #902F0B",
"d. c #AC3C0C",
"f. c #893925",
"g. c #AE3623",
"h. c #A01E00",
"j. c #844E00",
"k. c #885707",
"l. c #975B01",
"z. c #845B17",
"x. c #914E00",
"c. c #BB4A00",
"v. c #B44500",
"b. c #B14C10",
"n. c #996207",
"m. c #877500",
"M. c #997800",
"N. c #8A621A",
"B. c #986817",
"V. c #8A7008",
"C. c #A76903",
"Z. c #B76B00",
"A. c #AB7802",
"S. c #BD7300",
"D. c #B67608",
"F. c #A46D12",
"G. c #B57B17",
"H. c #AD7617",
"J. c #8B4F30",
"K. c #AC573A",
"L. c #896527",
"P. c #876638",
"I. c #947034",
"U. c #A87926",
"Y. c #AD7725",
"T. c #CA5C01",
"R. c #D44F1A",
"E. c #CA6604",
"W. c #D66A00",
"Q. c #C17500",
"!. c #CD7400",
"~. c #C27A02",
"^. c #CB7B01",
"/. c #C17E0B",
"(. c #D37400",
"). c #D57A01",
"_. c #CB6C12",
"`. c #E36F00",
"'. c #C46C30",
"]. c #D45123",
"[. c #816D44",
"{. c #876A44",
"}. c #827046",
"|. c #86744A",
" X c #8A754B",
".X c #8D7A4E",
"XX c #86784A",
"oX c #987A4B",
"OX c #8E7C50",
"+X c #927E52",
"@X c #976643",
"#X c #A5754A",
"$X c #B0704A",
"%X c #C37146",
"&X c #68833B",
"*X c #7C8B44",
"=X c #8E8E14",
"-X c #BA8616",
";X c #A68811",
":X c #BC8724",
">X c #AD8335",
",X c #B58D3A",
"<X c #92902B",
"1X c #C4810D",
"2X c #CB8306",
"3X c #D38405",
"4X c #C28314",
"5X c #C1861B",
"6X c #C88919",
"7X c #D38716",
"8X c #DB910F",
"9X c #C28A23",
"0X c #C18D2A",
"qX c #CA8827",
"wX c #CC942B",
"eX c #C79229",
"rX c #C48C34",
"tX c #C2943C",
"yX c #C99635",
"uX c #D39528",
"iX c #D8A23B",
"pX c #E28000",
"aX c #819248",
"sX c #958154",
"dX c #998456",
"fX c #9B8658",
"gX c #9E895A",
"hX c #958758",
"jX c #92924E",
"kX c #A98349",
"lX c #BB9149",
"zX c #A38D5C",
"xX c #A78756",
"cX c #AA925F",
"vX c #A7905E",
"bX c #BD9554",
"nX c #B9965C",
"mX c #B8965C",
"MX c #B68B4D",
"NX c #B5A454",
"BX c #AC9461",
"VX c #A79562",
"CX c #B39B64",
"ZX c #BA9D64",
"AX c #B69864",
"SX c #AB8960",
"DX c #B7A266",
"FX c #C49847",
"GX c #C69C57",
"HX c #CC894E",
"JX c #D5A449",
"KX c #CEA157",
"LX c #CFA14C",
"PX c #C39E63",
"IX c #C6A467",
"UX c None",
/* pixels */
"UXUXUXUXUXUXUXUXUXUXUXUXUXUXUXUXUXUXUXUXUXUXUXUXUXUX3 < + @ > @   # & * < 6 UXUXUXUXUXUXUXUXUXUXUXUXUXUXUXUXUXUXUXUXUXUXUXUXUXUX",
"UXUXUXUXUXUXUXUXUXUXUXUXUXUXUXUXUXUXUXUXUXUX2 O 8 w q T L k g.z E 8.T T W T w 8 ; 7 UXUXUXUXUXUXUXUXUXUXUXUXUXUXUXUXUXUXUXUXUXUX",
"UXUXUXUXUXUXUXUXUXUXUXUXUXUXUXUXUXUXUXUX& 9 w E ' _ : :.W k w.n W P.6 F  Xt.t.e./ w 0 : UXUXUXUXUXUXUXUXUXUXUXUXUXUXUXUXUXUXUXUX",
"UXUXUXUXUXUXUXUXUXUXUXUXUXUXUXUXUX3 % w E _ @.:.:.@.5 ;.E j P.D w ! / 8.r.u..XoXd s *XL h , 7 UXUXUXUXUXUXUXUXUXUXUXUXUXUXUXUXUX",
"UXUXUXUXUXUXUXUXUXUXUXUXUXUXUXUX> 8 W p 6 :.@.' W T u r j c 6.f.z k k b e u R 8.8.t.e.4 K.g.% % UXUXUXUXUXUXUXUXUXUXUXUXUXUXUXUX",
"UXUXUXUXUXUXUXUXUXUXUXUXUXUX@ h p.4 E N u E q r j c S >.>.6.0.0.y.{.{.@XJ.J.S n y R w f.VXS W &Xw - UXUXUXUXUXUXUXUXUXUXUXUXUXUX",
"UXUXUXUXUXUXUXUXUXUXUXUXUX$ 0 z } A e Y e j A >.<.3.3.3.0.0.0.w.y.t.t.t.u..X+XoX@Xf.c #X#Xr aXi.g ! % UXUXUXUXUXUXUXUXUXUXUXUXUX",
"UXUXUXUXUXUXUXUXUXUXUX< 8 T _ q c @.z k A >.&.,.,.2.<.6.0.,.0.q.t.[.}.|. X XOXOXhXfX+XfXK.< 9.-.=.CXe.8 N UXUXUXUXUXUXUXUXUXUXUX",
"UXUXUXUXUXUXUXUXUXUX< 9 U + B Y h } :.:.&.$.,.,.<.3.6.0.*.. *.}.}. X|. X XOXOX+X+X+XfXfXzXK.j R aXAXAXaXw 7 UXUXUXUXUXUXUXUXUXUX",
"UXUXUXUXUXUXUXUXUX< 0 _ V 5 L e x :.%.&.$.,.<.<.3.3.0.0.5.= : t.=.a 0..XOX+X+XhXzXzXgXgXzXVXSXf.e 9.AXZXjXL s UXUXUXUXUXUXUXUXUX",
"UXUXUXUXUXUXUXUX3 0 _ V ` T t A @.@.@.,.,.<.<.3.3.0.0.q.t.5.o t.5   4.+X+X+XhXsXG 5.+XvXzXzXVXAXK.7 ^ DX{.;.w f UXUXUXUXUXUXUXUX",
"UXUXUXUXUXUXUX3 8 W V _ P j S @.@.@.,.,.<.<.3.6.0.0.q.4.t.0.0.4.o - t.+X+X+XgXg     G BXvXvXcXVXDX%Xj ! 5.J NX0 H UXUXUXUXUXUXUX",
"UXUXUXUXUXUXUX8 Q V ` P k S ;.@.@.,.,.<.3.3.3.0.0.q.t.f 4.*.G X 5 = = .XhXdXfXg     =.zXBXBXBXBXBXDX%Xn / NXe.r , UXUXUXUXUXUXUX",
"UXUXUXUXUXUX$ T 3 f Y h S %.@.@.,.<.,.<.3.3.0.0.q.q.q.$.= -.s     g y.+XdXfXzX*.g t.g - F fXAXBXAXBXZXHXn w j '.]., UXUXUXUXUXUX",
"UXUXUXUXUX* 0 _ 3 L 4 f.&.@.@.,.,.<.3.<.0.0.q.t.-.:   :   s X     =.vXdXfXfXs s zXCX|.+.  - gXAXmXmXAXPX%Xs.HXLXg.$ 3 UXUXUXUXUX",
"UXUXUXUXUXh k u P e A &.@.@.,.,.<.#.; . s q.3.s a s + X a   G g . +.zXhXvXy.  g t.g g *.a   #.ZXmXnXnXHXlXLXtXs.q =Xq UXUXUXUXUX",
"UXUXUXUX> p.:.c h D @.@.,.,.,.<.6.%.f g : : o   #. XH   = G gXzX5 G zXgXvX*.s dXVXgXy.|.ZX7.d ZXmXbXbXFXlXFXb.$ <XY.Q 8 UXUXUXUX",
"UXUXUX3 8 j A @.K :.@.@.&.,.<.<.&.2.5.<.2.        +   . *.sXsXgX=.  t.vXvXy..XZX[.H #.J SX5.. kXGXbXlXFXtXtXwXn O.M m T V UXUXUX",
"UXUXUX% W W e z :.@.@.&.,.<.3.3.+       o o g 4.4.*.#.y.fX+XsXgXOX. a vXVX Xa g F |.$.|.oX=.  6.GXFXFXtXtXrXyXb.9 <XqXO.$ UXUXUX",
"UXUXUX0 e V P k :.&.<.<.<.2.6.w.2.+.f s G -.w..X+X+XhX+X+XhXdXfXvXg   }.AXVX:     - . 5 6 d X 1.LXlXtXtX0X0XeXuXA ..7X5Xq UXUXUX",
"UXUX; T @ f u A &.,.,.<.<.0.0.%.+.t..XXX5     5 4.sX+X+X+XdXdXgXVXy.  g AXZX#.s 7.OX#XmX@XN   B LXtXtXrX:X0X9XeXb.e ;X7XX.; UXUX",
"UXUX8 ' :.E j 1.,.,.<.3.3.3.a   . -.%.g 5 s a : H |.hXhXdXdXgXzXzXVXg . +XZX-.F OX{.2.F %.1.@.7 L.yXeX0X0X0X9X9XuXn X.7X-X0 UXUX",
"UX4 w @.@.q A ,.,.<.<.3.w.G   . o : s 4..XXXG + g OXdXdXfXgXzXvXSXhXy.  - s . f 5   O @XlX%.1.FX3 L.wX0X0X9X5X:X7Xd.I -Xn.I v UX",
"UX; W :.' r >.2.3.3.3.0.0.0.4.w.}.[.t.=.g X   = 4.gXdXfXgXzXzXdXH H y.6     H IXoX.   B B   V iX1.1 Y.eX9X5X5X5X-X_.t o.@ ) 1 UX",
"UX$ ' :.E k 1.2.3.3.0.0.q.t.y.4.g o o     : =.OXgXhXfXgXzXzXBXH = 4.#.2.  f PXPXmXd N lX1.| U.yXY. .9X9X9X-X5X5X5X7XC X.-X=X8 UX",
"UXw ,.<.I A 5.4.3.6.0.0.t.0.:     . f +.=.+XzXzXgXgXzXvXzXVXVXs     g F   + xXGXbXlXlXLXiXyXyXwXU.. V qX5X5X4X4X1X6Xa.w U i O UX",
"4 q 5 R u S 3.3.0.0.w.t.5.:   5 *.|.sXt.+.a 5 s +.OX+XhXvXAX4.: =     + F . :.KXLXFXJXI.1.3 ` :XY..   B.6X5X4X/.1X1XE.a.d.T.p.b ",
"3 T d / y >.r.0.0.w.q.}.g g . y.sX4.a     a s .     . o 5 a =   =.+X5.{.PX= . P.1.lX}     . < 9XY.. * G.6X/.4X4X/./.D.3X^.T.p.4 ",
"= P / E 4 J.0.0.w.q.t.[.: +.5.g = o g *.|.zXvX+.  5 t.G   7.dX}.ZXZXPXPX:.      B ,XB 4   . z.uXb   O H.4X1X1X/././.^.a.j i q * ",
"> k k j c w.0.q.y.t.[.}.: X *.XX-.OXy.g t.VXt.+ a VXVX4.zXDXZXvX#.6.PX#XN =     U.iXiXY.V B.uXqX}     k.6X1X/././.~.(.k ..A.O.o ",
"> g.6.P.t.0.q.q.t.[.}.|.|.G   a sXgXt.*.OXzXzXOX+XAXi.5 i.gXIX7.F MXGX:.KXI.7 . } ` z.eXuXF.| 2 F. .M H.1X/.D.~.~.S.3XC ) , ] $ ",
"@ z z A f.t.q.t.[.}.|. XOXsX0.o y.gXgXvXzXzXzXVXVXBXzX5   #.H #.IXPXkX+ L.JXL.*   y d r y X   3 < F.8X1X/./.1X/.~.~.).C ) x.O.$ ",
"# E / w z {.t.t.}.|.|.OXOX+XzXG : hXSXcXVXvXvXcXcXcXBXG =     6 #XbXlX3   y X     B.:X  m N.M F.F.3 D.1X/.~.S./.~.S.^.C ) `.;X# ",
"% 8.4./ n {.}.}.|.|.OXOXOX+XgX4.a vX4.7.5.2.sXBXcXmXBXcXcX XN   B FXFXlXB         2 |   N.{ . z.n.@ D./.1XS.~.~.~.~.^.C o.).m.# ",
"& R + / n @X|.|. X.XOX+X+XhXgXt.g VXg a y.dXBXCXCXCXZXPXPXKXGXkX>XFXtXtXyXB.7           O N.{ t  .v 7X~.~.~.~.~.~.Q.!.k o.).m.% ",
"* / i.8.b @X|.XX XOX+X+X+XfXgX+Xa +XzXVXBXCXcXg 6.dX5.xXdXP.kXLXLXFXtX:XeX0XeXN..   . } b t 1Xv 2 M 2X~.~.~.S.Q.S.~.W.j m.).o.& ",
"1 W .Xe.r @XXXXXOX+X+XhXfXfXzXhXG zXVXcXCXfX5 - f o - . = . X p N >XyXeX0XU.[ B.B.v 2 Z /. .M t   t ^.~.~.~.Q.Q.Q.~.T.r V.l.) 2 ",
"7 T  Xu.a J.sXXX+X+XfX+XhXgXzX+.4.VXBXAXfXa   y.ZXd bX7.I.d 1.3   @ ` U.wXeX9Xz.V  .G.[ M k.{ <   M 2X~.~.S.Q.S.Q.~.c.i j.O q b ",
"UXw |.XXR K hX+X+X+XfXfXgXzXg i.AXVXH *.- s .XH xX#XGXGXkX+ >XrXV     O | G.B.-XqXF.4Xk.k.n.t [ Z.S.~.S.Q.~.Q.Q.S.^.a.q A.A.q UX",
"UX8 u.fX8.n #X+XfXfXfXfXVX4.*.t.zXt.  : y.mXIX6.6 bXGXFX>X< >XyXwXN.3     X m m Z n.6Xk.3 M < 2 [ 3X~.Q.S.Q.Q.Q.Q.Q.v.k u ( 8 UX",
"UX; 9.=.8.t #XsXdXfXgXgXVXH a = : + #.zXPXAXnXkX  N FXLXV B yX0X:XwXG.1     m m     < D.2X{ t b . l.^.Q.Z.Q.Q.S.Q.Q.^.!.v.x > UX",
"UXN L p 2.R f.gXfXgXzXzXBXt.}.BX+.s IXAXAXnXPX#Xd P.FX>Xr U.eX0X0X9XuXN.  M <   r { r = [ S.3XC.j.v Q.Q.Q.Q.Q.Q.Q.c.s.v.W.h.b UX",
"UXUX8 *X&Xw c SXgXzXzXzXcXzX4.AXt.: AXAXmXbXGX6.B ,XL.L.` yX0X9X9X9X5XH.. B.M   M 8X2Xv   2 n.Z.Z.v [ (.Q.Q.Q.S.!.z I i j > UXUX",
"UXUX: L y f.#XzXzXzXzXvXcXCXt.fXvX- .XPXnXbXLXB - - i >XN.wX9X9X5X5X4X6Xy M 2 . 4 /.^.C.O           b !.Q.Q.Q.Q.c.e m.C...& UXUX",
"UXUXUXh %XVX#XK.SXvXvXcXvXAX|.y.IXp & bXGXFXlX&     } U.} uX9X5X5X5X4X7XM   + < r { ^.3X[   . v r b j.Q.Q.Z.Q.!.x ( M r I UXUXUX",
"UXUXUX, g.A 7 3 K.BXVXVXcXAXdX2.IXoXp p #XLXFX` ; | | 0Xb :X9X9X5X4X4X4Xn.1 D.t { M 3X^.C.  < ^.Q.^.!.Q.S.Q.Q.c.e M.Z.X.$ UXUXUX",
"UXUXUXJ # ! e.^ k bXBXcXBXmXmX=.t.KXGXP.V 1.yXiXN.m wXeXN.V 6X6X4X4X1X1X1Xb n.S.3Xv [ ^.^.r   j.^.Q.S.S.Q.S.W.k ( !.~.I M UXUXUX",
"UXUXUXUX% e.6 -.T f.DXBXcXAXPXoXp 2.KXJXFX: | yXwX} z.wX6X .m  .G.4X1X/.2X[ & D.3XZ   Z 3Xj.  t !.Q.S.S.Q.^.a.q A.!.o.% UXUXUXUX",
"UXUXUXUXUX0 u.SXaX1 K.DXZXnXnXGXbX` 6.@.1   y yXeX:XV -X6XuXM   m 7X1X1X^.~.{ b ^.l.    Z S.O   { ^.!.S.~.c.2 m.!.A.0 UXUXUXUXUX",
"UXUXUXUXUX: ! CXDX9.4 %XZXnXnXlXMXI.B y &   } wX:X-XM V H.m       k.D.C.C.~.3X[ v M       x.v     4 j.S.T.j ( Z.Q.~ < UXUXUXUXUX",
"UXUXUXUXUXUX# e.DXZX^ k HXGXGXlX,XI.>XyXL.; } m   X         . < & . t t t M b b 1 M t       t M M M [ Z.x Y [ > o.# UXUXUXUXUXUX",
"UXUXUXUXUXUXUX8 aXIXZX! k HXFXlXFXyXrXeX:XN.} m | m 1 m [ F.D.1XD.C.S.~.C.[ b 2 M M < O < 1 b l.).~.(.!.v.r X.o.8 UXUXUXUXUXUXUX",
"UXUXUXUXUXUXUXH w jXnX XW n %XtXtXrX0X0X0XqX6XY.H.B.z.k.n.z.n.n.n.C.~.3XQ.x.j.{ Z j.l.Z.Z.Z.x.n.^.T.x v.2Xv.r w v UXUXUXUXUXUXUX",
"UXUXUXUXUXUXUXUXN L 3.@ ,X0 s.iXyXrX0X0X9X9X-XH.F.k. .Z t b M Z M l.S.C.Q.^.^.C.l.C.!.Q.Q.Q.~.).c.j Y 2 v.`.l r UXUXUXUXUXUXUXUX",
"UXUXUXUXUXUXUXUXUXd 0 <X9.h rXqXb.qXeX0X5X-X5X6X6X4X4XF.k.k.C.D.^.2Xj.M Z l.S.j.[ x.Q.Z.Q.Q.W.a.e ( l.O.r l 4 UXUXUXUXUXUXUXUXUX",
"UXUXUXUXUXUXUXUXUXUXy L r '.iXs.8 C b.7X9X9X4X4X-XD.D.D.D.A.C.D.~.S.n.C.l.C.Q.Q.S.Q.Q.Q.(.c.k q m.x.@ m.8 2 UXUXUXUXUXUXUXUXUXUX",
"UXUXUXUXUXUXUXUXUXUXUXN , R.d.u =XX.u D _.6X6X4X1X1X1X1X~.~.^.~.~.Q.~.Q.Q.Q.Q.Q.S.Q.!.c.C e ..A.!.S.) 8 j UXUXUXUXUXUXUXUXUXUXUX",
"UXUXUXUXUXUXUXUXUXUXUXUXUX, % =XY.3 L...e k d._.2X2X1XD.~.~.~.~.~.Q.Q.~.~.~.!.Q.S.v.z e ..A.!.!.A.( 8 UXUXUXUXUXUXUXUXUXUXUXUXUX",
"UXUXUXUXUXUXUXUXUXUXUXUXUXUX; q X.} 6X7X;XX.U b C a.E.S.^.(.^.(.!.(.!.W.T.c.a.v.^.a.L M.v l.~.O.w O UXUXUXUXUXUXUXUXUXUXUXUXUXUX",
"UXUXUXUXUXUXUXUXUXUXUXUXUXUXUXUX& Q O.-X7X3XV.o.X.9 a.3Xa.k C C C C k j r i u j !.v.i D.t ) I & UXUXUXUXUXUXUXUXUXUXUXUXUXUXUXUX",
"UXUXUXUXUXUXUXUXUXUXUXUXUXUXUXUXUXn $ I O.;X2 [ 8XU v.(.b ..) ( ) X.o.m.M.k.M.u v.W.j ..U $ j UXUXUXUXUXUXUXUXUXUXUXUXUXUXUXUXUX",
"UXUXUXUXUXUXUXUXUXUXUXUXUXUXUXUXUXUXUXUX& 9 I o.=Xi T.E.y 1XC v `.(.`.).^.1 [ ( x h., & UXUXUXUXUXUXUXUXUXUXUXUXUXUXUXUXUXUXUXUX",
"UXUXUXUXUXUXUXUXUXUXUXUXUXUXUXUXUXUXUXUXUXUX4 ; 8 & p.p.q m.) ) M.m.O.o.) I q 8 * 4 UXUXUXUXUXUXUXUXUXUXUXUXUXUXUXUXUXUXUXUXUXUX",
"UXUXUXUXUXUXUXUXUXUXUXUXUXUXUXUXUXUXUXUXUXUXUXUXUXUX4 > * o & 8 # $ % & < 4 UXUXUXUXUXUXUXUXUXUXUXUXUXUXUXUXUXUXUXUXUXUXUXUXUXUX"
};
