/* XPM */
static char *_b47df798be94fd9be0a6aa217fd7316[] = {
/* columns rows colors chars-per-pixel */
"16 16 172 2 ",
"   c #2B2929",
".  c #353434",
"X  c #363635",
"o  c #3E3D3D",
"O  c #3E3E3E",
"+  c #464646",
"@  c #484847",
"#  c #535251",
"$  c #5A5958",
"%  c #5C5C5B",
"&  c #5F5E5E",
"*  c #605F5F",
"=  c #63605F",
"-  c #606060",
";  c #646263",
":  c #656363",
">  c #646463",
",  c #6A6868",
"<  c #6A6969",
"1  c #6D6C6A",
"2  c #6C6C6B",
"3  c #6F6E6E",
"4  c #716F6E",
"5  c #7B776E",
"6  c #727271",
"7  c #747473",
"8  c #777673",
"9  c #767676",
"0  c #7B7A7A",
"q  c #7C7C7B",
"w  c #7D7D7E",
"e  c #7E7E7E",
"r  c #807F7F",
"t  c #85827C",
"y  c #85837E",
"u  c #808180",
"i  c #848383",
"p  c #858480",
"a  c #848484",
"s  c #868586",
"d  c #868686",
"f  c #878686",
"g  c #888787",
"h  c #8A8882",
"j  c #8B8A85",
"k  c #8D8A86",
"l  c #898988",
"z  c gray54",
"x  c #8C8B8B",
"c  c #8D8C8A",
"v  c #8F8F8E",
"b  c #918F8C",
"n  c #908F8F",
"m  c #93918C",
"M  c #90908F",
"N  c #92928F",
"B  c #919090",
"V  c #939290",
"C  c #939291",
"Z  c #939292",
"A  c #969690",
"S  c #959593",
"D  c #959494",
"F  c #989797",
"G  c #9A9894",
"H  c #99999A",
"J  c #9A999A",
"K  c #9C9B99",
"L  c #9C9A9A",
"P  c #9C9B9B",
"I  c #9F9E9A",
"U  c gray61",
"Y  c #9D9D9E",
"T  c #9C9D9F",
"R  c #9E9E9F",
"E  c #A09F9D",
"W  c #A1A09C",
"Q  c #A0A09E",
"!  c #A1A09E",
"~  c #A1A19F",
"^  c #A0A0A0",
"/  c #A1A0A0",
"(  c gray63",
")  c #A3A2A2",
"_  c gray64",
"`  c #A4A4A3",
"'  c #A6A5A5",
"]  c #A6A6A4",
"[  c #A9A9A8",
"{  c #AAAAA9",
"}  c #ACACAB",
"|  c #ADACAC",
" . c #ADADAC",
".. c #ADACAD",
"X. c #ADAEAE",
"o. c #B0AEAE",
"O. c #B9B7AE",
"+. c #B1B0B0",
"@. c #B1B2B2",
"#. c gray70",
"$. c #B3B4B5",
"%. c #B5B4B5",
"&. c gray71",
"*. c #B7B7B4",
"=. c #B7B7B6",
"-. c #B3B5B8",
";. c #BBBABB",
":. c #BBBCBD",
">. c #BCBCBC",
",. c #BDBCBC",
"<. c #BCBCBE",
"1. c #C3C2C2",
"2. c #C2C3C5",
"3. c #C3C4C4",
"4. c #C5C5C5",
"5. c #C6C5C4",
"6. c #C6C6C6",
"7. c #C7C7C8",
"8. c #C6C8CB",
"9. c #C8C8C8",
"0. c #CACBCD",
"q. c gray80",
"w. c #CDCDCD",
"e. c #D0D1D1",
"r. c #D2D1D1",
"t. c #D5D5D4",
"y. c #D6D5D5",
"u. c #D7D6D6",
"i. c #D6D7D7",
"p. c #D8D7D7",
"a. c #D7D7D8",
"s. c #D8D8D8",
"d. c gray85",
"f. c gray86",
"g. c #DCDBDB",
"h. c #DBDBDC",
"j. c #DBDBDD",
"k. c #DFDFDF",
"l. c #E0DFDF",
"z. c #E0E0DF",
"x. c #E2E1E0",
"c. c #E2E1E1",
"v. c #E2E2E1",
"b. c #E2E2E2",
"n. c gray89",
"m. c #E4E4E3",
"M. c #E6E5E5",
"N. c #E5E6E5",
"B. c #E6E6E6",
"V. c #E7E7E6",
"C. c #E6E7E7",
"Z. c #E7E6E8",
"A. c #E7E7E8",
"S. c #E9E9E9",
"D. c #EAEAE9",
"F. c #ECECEB",
"G. c #EAEBEC",
"H. c gray93",
"J. c #EEEEEC",
"K. c #EFEEED",
"L. c gray94",
"P. c #F0F1F1",
"I. c #F0F1F2",
"U. c gray95",
"Y. c #F3F3F3",
"T. c #F5F4F5",
"R. c #FBFBFB",
"E. c #FCFBFB",
"W. c #FEFDFD",
"Q. c #FDFEFE",
"!. c gray100",
"~. c None",
/* pixels */
"~.~.~.~.~.5 I E S G j ~.~.~.~.~.",
"~.~.~.k J 2.0.v.K.I.e.S ~.~.~.~.",
"~.~.W R l.!.W.a B.r.t.n.-.t ~.~.",
"~.E J v.n.q.1   7.J 4 I.v.R ~.~.",
"~.a l.T.; # v %.&...; G !.s.W ~.",
"O.<.!.( & C !.I.$ 7 , ( !.R.8.~.",
"W Z.k.2 < 2 ..C . =.5.0 ( !.3.p ",
"c K.w.> s.4.> ' P @ F & +.!.D.n ",
"C k.!.j.2.t.( a B.+ O i K.!.K.} ",
"*.j.R.] D c ` q x #.l e I.!.j.h ",
"A | !.e ,.;.C !.7 . ( & v.!.J ~.",
"~.m t.v.u l ..4.p.D e = I.B.] ~.",
"~.~.[ v...a 9 + <.a O R s.+.~.~.",
"~.~.b U B.v.0.A.D.v.B.h.&.8 ~.~.",
"~.~.~.~.I :.a.F.v.G.<.] ~.~.~.~.",
"~.~.~.~.~.~.m M [ y ~.~.~.~.~.~."
};
