/* XPM */
static char *fdf265b6d33540c3c67b7e59225e51fc[] = {
/* columns rows colors chars-per-pixel */
"16 16 206 2 ",
"   c #0F0C07",
".  c #1D1000",
"X  c #17140E",
"o  c #201302",
"O  c #231503",
"+  c #341906",
"@  c #301F07",
"#  c #351E06",
"$  c #211D11",
"%  c #231D11",
"&  c #1E2609",
"*  c #25260A",
"=  c #272A0A",
"-  c #282B0B",
";  c #3E2102",
":  c #392007",
">  c #3E2605",
",  c #33230E",
"<  c #32250E",
"1  c #382409",
"2  c #312B0A",
"3  c #322D0B",
"4  c #352D0D",
"5  c #372D0F",
"6  c #3C3204",
"7  c #252012",
"8  c #282213",
"9  c #2D2616",
"0  c #2D2717",
"q  c #392E10",
"w  c #3E2E10",
"e  c #302E1B",
"r  c #372E1C",
"t  c #393713",
"y  c #343915",
"u  c #3A3A17",
"i  c #3E3914",
"p  c #3A311D",
"a  c #3B321F",
"s  c #3C341D",
"d  c #3C3A19",
"f  c #3B3F19",
"g  c #3B3D1C",
"h  c #383020",
"j  c #3E3421",
"k  c #451F03",
"l  c #4D2605",
"z  c #412F04",
"x  c #4C2803",
"c  c #4B2F03",
"v  c #4C2F03",
"b  c #482904",
"n  c #43200A",
"m  c #48230C",
"M  c #422A09",
"N  c #552603",
"B  c #592803",
"V  c #5D2804",
"C  c #4E3A05",
"Z  c #563203",
"A  c #593303",
"S  c #5B3303",
"D  c #5C3606",
"F  c #523E04",
"G  c #54330B",
"H  c #55370B",
"J  c #5A3E0F",
"K  c #4A3516",
"L  c #4E3918",
"P  c #4F3C1B",
"I  c #573C1D",
"U  c #5C3A1C",
"Y  c #5D3A1C",
"T  c #633805",
"R  c #683C05",
"E  c #6B3F07",
"W  c #6E3E04",
"Q  c #6F3F04",
"!  c #603A0A",
"~  c #483720",
"^  c #403923",
"/  c #443924",
"(  c #473C24",
")  c #473D25",
"_  c #5F4504",
"`  c #554508",
"'  c #5D4909",
"]  c #5F4411",
"[  c #5F4314",
"{  c #614704",
"}  c #624604",
"|  c #7E4004",
" . c #734509",
".. c #74490B",
"X. c #7C4D0D",
"o. c #654012",
"O. c #6A4915",
"+. c #6F4D16",
"@. c #61471E",
"#. c #6D4E1F",
"$. c #754D10",
"%. c #764C1D",
"&. c #795013",
"*. c #7F5613",
"=. c #7E5015",
"-. c #71521F",
";. c #4B4124",
":. c #4C4424",
">. c #4D4525",
",. c #4F462C",
"<. c #5D4722",
"1. c #57492A",
"2. c #554C2D",
"3. c #5A4C2E",
"4. c #57572A",
"5. c #5D4F30",
"6. c #614C29",
"7. c #654C2B",
"8. c #634D2D",
"9. c #684E2A",
"0. c #684F2C",
"q. c #6F532D",
"w. c #645D2E",
"e. c #745323",
"r. c #7A5B22",
"t. c #71542F",
"y. c #614F30",
"u. c #635230",
"i. c #625433",
"p. c #635635",
"a. c #665534",
"s. c #6E5531",
"d. c #695634",
"f. c #6D5634",
"g. c #6A5A37",
"h. c #695938",
"j. c #6B5E39",
"k. c #6D5D38",
"l. c #705430",
"z. c #725630",
"x. c #735830",
"c. c #795B31",
"v. c #7A5D34",
"b. c #715F3B",
"n. c #716331",
"m. c #746136",
"M. c #776337",
"N. c #72613A",
"B. c #73623C",
"V. c #78663E",
"C. c #79683F",
"Z. c #914F04",
"A. c #984D05",
"S. c #845A0F",
"D. c #9E5805",
"F. c #91580A",
"G. c #95580A",
"H. c #A05505",
"J. c #AD5505",
"K. c #A05A06",
"L. c #A55E06",
"P. c #A85805",
"I. c #AA5A05",
"U. c #AC5806",
"Y. c #A55E0C",
"T. c #B45A06",
"R. c #B75D06",
"E. c #95620E",
"W. c #A3620D",
"Q. c #B46306",
"!. c #B96207",
"~. c #B56008",
"^. c #B5660B",
"/. c #A76912",
"(. c #AA6A16",
"). c #B07419",
"_. c #8D682E",
"`. c #81653C",
"'. c #B07225",
"]. c #C05A06",
"[. c #CB6B06",
"{. c #C86F06",
"}. c #C77309",
"|. c #CC7E10",
" X c #C27D1D",
".X c #C27C22",
"XX c #856C45",
"oX c #886E42",
"OX c #867547",
"+X c #8B7549",
"@X c #8B7648",
"#X c #917B4E",
"$X c #937E4C",
"%X c #9B7C49",
"&X c #BB8527",
"*X c #B48234",
"=X c #D28718",
"-X c #D89426",
";X c #9E8252",
":X c #9C8654",
">X c #A0804B",
",X c #B28042",
"<X c #B48850",
"1X c #AF955A",
"2X c #DCA74E",
"3X c None",
/* pixels */
"3X3X3X3X3X* - m 5 y < 3X3X3X3X3X",
"3X3X3X+ : i P 9.t.M.c.L d 3X3X3X",
"3X3X& 3 U 0.u.e j.N.XX>Xw.g 3X3X",
"3X1 2 I >.;.7   g.5.^ :X<X%.o.3X",
"3X# U >.7 $ ( i.k.a.h 8.2X'.` 3X",
"4 t 6.s $ ( 1X@Xr / / e.&X XS.C ",
"- <.1.9 9 j V.3.X x._.o.$.=XY.N ",
"n t.2.p N.B.j d.f.< O.M X.|.~.Z ",
"q t.OXB.C.$Xh.8.*X@ O G W.}.I._ ",
"f b.+Xj.p.y.v.@.+.&.! D L.{.J.c ",
"w t.%X,.oX`.#.-XH o  .b D.[.| V ",
"3XK %X#Xs.e.*.)./.E T ; Q.R.F 3X",
"3X4.n.,Xr.o.` > G.E . S ].Q { 3X",
"3X3Xu =..X(...F.D.Z.H.J.Q x 3X3X",
"3X3X3Xl ' E.^.!.P.T.A.{ z 3X3X3X",
"3X3X3X3X3X6 B A { c k 3X3X3X3X3X"
};
